<svg xmlns="http://www.w3.org/2000/svg" viewBox="0 0 24 24" fill="currentColor"><path d="M12.031 6.172c-3.181 0-5.767 2.586-5.768 5.766-.001 1.298.38 2.27 1.019 3.284l-.582 2.128 2.185-.573c.947.517 2.048.893 3.144.893 3.185 0 5.774-2.591 5.774-5.771 0-3.182-2.589-5.727-5.772-5.727zm3.744 8.239c-.155.438-.9 0-.9 0-.258-.291-.512-.573-.766-.859-.115-.125-.069-.214.053-.357l.123-.15c.148-.198.349-.466.195-.733-.06-.105-.333-.8-.456-1.103-.122-.303-.248-.253-.339-.257-.083-.004-.179-.005-.274-.005-.096 0-.251.036-.383.179-.132.143-.504.492-.504 1.2s.515 1.392.587 1.49c.072.098 1.014 1.547 2.455 2.17.343.148.61.237.82.304.344.108.658.093.905.056.275-.041.848-.347.967-.682.118-.335.118-.621.083-.682-.036-.06-.132-.097-.287-.179zM12 0c-6.627 0-12 5.373-12 12s5.373 12 12 12 12-5.373 12-12-5.373-12-12-12zm.029 18.88c-1.161 0-2.305-.292-3.318-.844l-3.677.964.984-3.595c-.607-1.052-.927-2.246-.926-3.468.001-3.825 3.113-6.937 6.941-6.937 1.856 0 3.598.723 4.907 2.034 1.31 1.311 2.031 3.054 2.03 4.908-.001 3.825-3.113 6.938-6.941 6.938z"/></svg>
