<svg xmlns="http://www.w3.org/2000/svg" viewBox="0 0 24 24" fill="currentColor"><path d="M11.944 0c-6.601 0-11.944 5.343-11.944 11.944 0 6.601 5.343 11.944 11.944 11.944 6.601 0 11.944-5.343 11.944-11.944 0-6.601-5.343-11.944-11.944-11.944zm5.862 8.107l-2.029 9.564c-.15.68-.557.848-1.126.529l-3.093-2.279-1.493 1.436c-.165.165-.304.304-.624.304l.222-3.155 5.744-5.19c.25-.223-.055-.347-.388-.125l-7.098 4.471-3.059-.956c-.665-.207-.677-.665.138-.982l11.952-4.607c.553-.207 1.037.124.852.959z"/></svg>
