<svg xmlns="http://www.w3.org/2000/svg" viewBox="0 0 24 24" fill="currentColor"><path d="M14.471 2.378c2.906.591 5.342 2.721 6.277 5.518.784 2.348.653 4.897-.376 7.155-1.503 3.297-4.708 5.613-8.291 5.922-3.32.285-6.529-1-8.799-3.409-1.291-1.311-2.181-2.923-2.585-4.71-.403-1.786-.347-3.666.166-5.419C1.946 3.42 5.094 1.157 8.524.819 10.495.626 12.553.987 14.471 2.378zM18.151 15.01c-.131-.3-.68-1.045-1.019-1.341-.307-.268-.535-.411-.796-.15-.41.411-1.066 1.48-1.134 1.543-.067.063-.134.127-.478-.063-2.071-.856-3.83-2.483-4.832-4.521-.194-.344-.127-.411-.064-.474.064-.064 1.129-.714 1.543-1.112.261-.261.261-.41-.064-.73-.335-.34-.969-.974-1.311-1.315-.335-.335-.398-.277-.665-.005-.333.344-.666.688-.934 1.095-.536.815-.536 1.706-.134 2.61.134.344.4.68.666 1.019 1.47 2 3.34 3.65 5.54 4.54.4.15.8.31 1.2.46.26.1.53.2.79.25.79.16 1.47-.11 1.87-.71.13-.2.27-.4.39-.59.13-.2.06-.34-.06-.46z"/></svg>
